<svg width="168" height="178" viewBox="0 0 168 178" fill="none" xmlns="http://www.w3.org/2000/svg">
<rect x="139.271" y="1" width="175.786" height="138.272" transform="rotate(90 139.271 1)" stroke="white" stroke-width="2"/>
<rect x="168" width="177.786" height="35.8835" transform="rotate(90 168 0)" fill="#EA4C14"/>
<path d="M137.692 154.087C137.692 155.762 138.377 156.599 139.748 156.599C140.395 156.599 140.889 156.409 141.232 156.028C141.612 155.609 141.803 154.962 141.803 154.087V140.386C141.803 139.511 141.612 138.883 141.232 138.502C140.889 138.084 140.395 137.874 139.748 137.874C138.377 137.874 137.692 138.712 137.692 140.386V154.087ZM133.696 140.672C133.696 138.616 134.21 137.037 135.238 135.933C136.265 134.83 137.769 134.278 139.748 134.278C141.727 134.278 143.23 134.83 144.257 135.933C145.285 137.037 145.799 138.616 145.799 140.672V153.802C145.799 155.857 145.285 157.436 144.257 158.54C143.23 159.644 141.727 160.196 139.748 160.196C137.769 160.196 136.265 159.644 135.238 158.54C134.21 157.436 133.696 155.857 133.696 153.802V140.672ZM155.504 134.563H159.214L143.458 174.524H139.748L155.504 134.563ZM157.502 168.702C157.502 170.376 158.187 171.213 159.557 171.213C160.204 171.213 160.699 171.023 161.041 170.642C161.422 170.224 161.612 169.577 161.612 168.702V155.001C161.612 154.125 161.422 153.497 161.041 153.117C160.699 152.698 160.204 152.489 159.557 152.489C158.187 152.489 157.502 153.326 157.502 155.001V168.702ZM153.506 155.286C153.506 153.231 154.019 151.651 155.047 150.548C156.075 149.444 157.578 148.892 159.557 148.892C161.536 148.892 163.039 149.444 164.067 150.548C165.094 151.651 165.608 153.231 165.608 155.286V168.416C165.608 170.471 165.094 172.051 164.067 173.154C163.039 174.258 161.536 174.81 159.557 174.81C157.578 174.81 156.075 174.258 155.047 173.154C154.019 172.051 153.506 170.471 153.506 168.416V155.286Z" fill="white"/>
<path d="M37.003 138.085H50.1168V145.719H37.003V159.126H29.3696V145.719H16.2559V138.085H29.3696V124.874H37.003V138.085Z" fill="#EA4C14"/>
<path d="M78.8384 124.482C78.8384 121.416 78.3165 119.361 77.2726 118.317C76.2939 117.208 74.9565 116.653 73.2602 116.653C71.5638 116.653 70.1937 117.175 69.1499 118.219C68.1712 119.198 67.6819 120.927 67.6819 123.406V130.746H57.504V124.091C57.504 118.545 58.8415 114.304 61.5165 111.368C64.2567 108.367 68.2691 106.867 73.5537 106.867C78.8384 106.867 82.8182 108.367 85.4932 111.368C88.2334 114.304 89.6035 118.545 89.6035 124.091C89.6035 127.679 89.0815 130.941 88.0376 133.877C86.9938 136.748 85.6563 139.39 84.0252 141.804C82.4594 144.153 80.7304 146.339 78.8384 148.361C77.0116 150.384 75.2827 152.308 73.6516 154.135C72.0858 155.962 70.7809 157.756 69.737 159.518C68.6932 161.214 68.1712 163.008 68.1712 164.9C68.1712 165.553 68.2038 166.042 68.2691 166.368H88.6248V176.154H57.504V167.738C57.504 164.411 58.026 161.475 59.0699 158.93C60.1137 156.386 61.4186 154.07 62.9844 151.982C64.6155 149.829 66.3444 147.839 68.1712 146.012C69.998 144.12 71.6943 142.13 73.2602 140.043C74.8912 137.955 76.2287 135.671 77.2726 133.192C78.3165 130.713 78.8384 127.81 78.8384 124.482Z" fill="#EA4C14"/>
<path d="M107.169 160.398C107.169 162.878 107.658 164.639 108.636 165.683C109.68 166.662 111.05 167.151 112.747 167.151C114.443 167.151 115.781 166.662 116.759 165.683C117.803 164.639 118.325 162.878 118.325 160.398V123.406C118.325 120.927 117.803 119.198 116.759 118.219C115.781 117.175 114.443 116.653 112.747 116.653C111.05 116.653 109.68 117.175 108.636 118.219C107.658 119.198 107.169 120.927 107.169 123.406V160.398ZM96.4035 124.091C96.4035 118.545 97.8062 114.304 100.612 111.368C103.417 108.367 107.462 106.867 112.747 106.867C118.031 106.867 122.076 108.367 124.882 111.368C127.687 114.304 129.09 118.545 129.09 124.091V159.713C129.09 165.259 127.687 169.532 124.882 172.534C122.076 175.469 118.031 176.937 112.747 176.937C107.462 176.937 103.417 175.469 100.612 172.534C97.8062 169.532 96.4035 165.259 96.4035 159.713V124.091Z" fill="#EA4C14"/>
</svg>
