<svg aria-hidden="true" xmlns="http://www.w3.org/2000/svg"><defs><symbol id="arrow_down" viewBox="0 0 24 24"><path d="M7.406 8.578 12 13.172l4.594-4.594L18 9.984l-6 6-6-6z"/></symbol><symbol id="arrow_left" viewBox="0 0 24 24"><path d="M15.422 16.594 14.016 18l-6-6 6-6 1.406 1.406L10.828 12z"/></symbol><symbol id="arrow_right" viewBox="0 0 24 24"><path d="M8.578 16.594 13.172 12 8.578 7.406 9.984 6l6 6-6 6z"/></symbol><symbol id="arrow_up" viewBox="0 0 24 24"><path d="M7.406 15.422 6 14.016l6-6 6 6-1.406 1.406L12 10.828z"/></symbol><symbol id="arrow_back" viewBox="0 0 24 24"><path d="M11.672 3.891 3.563 12l8.109 8.109-1.781 1.781L0 11.999l9.891-9.891z"/></symbol><symbol id="arrow_forward" viewBox="0 0 24 24"><path d="m5.859 4.125 2.156-2.109L17.999 12l-9.984 9.984-2.156-2.109L13.781 12z"/></symbol></defs></svg>