<svg width="104" height="72" viewBox="0 0 104 72" fill="none" xmlns="http://www.w3.org/2000/svg">
<g opacity="0.8">
<path d="M17.9814 14.802C17.9814 11.7644 20.4439 9.302 23.4814 9.302H83.4644C86.502 9.302 88.9645 11.7644 88.9645 14.802V37.0682C88.9645 40.1058 86.502 42.5682 83.4645 42.5682H67.1275C65.3963 42.5682 63.7662 41.7531 62.7275 40.3682L60.6356 37.579C57.2356 33.0457 50.4356 33.0457 47.0356 37.579L44.9437 40.3682C43.905 41.7531 42.2749 42.5682 40.5437 42.5682H23.4814C20.4439 42.5682 17.9814 40.1058 17.9814 37.0682V14.802Z" stroke="#F5F5F5" stroke-width="3"/>
<path d="M19 11V7C19 4.23858 21.2386 2 24 2H83C85.7614 2 88 4.23858 88 7V11" stroke="#F5F5F5" stroke-width="3"/>
<circle cx="36.4274" cy="25.5729" r="6.1159" stroke="#F5F5F5" stroke-width="3"/>
<circle cx="70.5182" cy="25.5729" r="6.1159" stroke="#F5F5F5" stroke-width="3"/>
<path d="M2 45.1038L8.8861 44.0693L10.2758 50.2688M29.9309 64.9877C13.3118 62.35 5.44862 57.0061 5.44862 50.2688C5.44862 48.0782 6.66875 45.9862 8.88683 44.0696M79.2411 64.9877C94.407 62.173 102 56.6374 102 50.2688C102 48.0782 100.78 45.9862 98.5618 44.0696" stroke="#F5F5F5" stroke-width="3" stroke-linecap="round" stroke-linejoin="round"/>
<path d="M41.1017 71.6213C40.2859 71.6213 39.5808 71.5223 38.9863 71.3241C38.3919 71.126 37.8966 70.8696 37.5003 70.5549C37.1157 70.2286 36.8243 69.8789 36.6262 69.506C36.4281 69.1213 36.3232 68.7426 36.3115 68.3696C36.3115 68.2647 36.3465 68.1831 36.4164 68.1248C36.498 68.0549 36.5912 68.0199 36.6961 68.0199H38.2696C38.3861 68.0199 38.4852 68.0433 38.5668 68.0899C38.6484 68.1365 38.7183 68.2297 38.7766 68.3696C38.8815 68.6843 39.0505 68.9349 39.2836 69.1213C39.5283 69.3078 39.808 69.4419 40.1227 69.5234C40.4374 69.5934 40.7696 69.6283 41.1192 69.6283C41.8185 69.6283 42.3721 69.4652 42.7801 69.1388C43.1996 68.8008 43.4094 68.323 43.4094 67.7053C43.4094 67.0875 43.2171 66.6447 42.8325 66.3766C42.4479 66.0969 41.9118 65.957 41.2241 65.957H39.4234C39.2952 65.957 39.1903 65.922 39.1087 65.8521C39.0271 65.7705 38.9863 65.6656 38.9863 65.5374V64.8032C38.9863 64.6866 39.0097 64.5875 39.0563 64.506C39.1146 64.4127 39.1728 64.337 39.2311 64.2787L42.3605 61.2193H37.3605C37.2323 61.2193 37.1274 61.1785 37.0458 61.0969C36.9759 61.0153 36.9409 60.9162 36.9409 60.7997V59.6458C36.9409 59.5176 36.9759 59.4127 37.0458 59.3311C37.1274 59.2496 37.2323 59.2088 37.3605 59.2088H44.8605C44.9887 59.2088 45.0936 59.2496 45.1752 59.3311C45.2567 59.4127 45.2975 59.5176 45.2975 59.6458V60.6948C45.2975 60.7997 45.2742 60.8929 45.2276 60.9745C45.181 61.0561 45.1285 61.126 45.0703 61.1843L42.0458 64.2962L42.2556 64.3137C42.9665 64.3719 43.5959 64.5351 44.1437 64.8032C44.7031 65.0596 45.1344 65.4384 45.4374 65.9395C45.7521 66.4407 45.9094 67.0701 45.9094 67.8276C45.9094 68.6202 45.6996 69.302 45.2801 69.8731C44.8721 70.4325 44.3069 70.8638 43.5843 71.1668C42.8616 71.4698 42.0341 71.6213 41.1017 71.6213Z" fill="#F5F5F5"/>
<path d="M52.4284 71.6213C51.426 71.6213 50.5636 71.4349 49.8409 71.0619C49.1183 70.6773 48.5589 70.1645 48.1626 69.5234C47.7664 68.8708 47.5682 68.1423 47.5682 67.3381C47.5682 66.9768 47.6148 66.6272 47.7081 66.2892C47.8013 65.9512 47.9237 65.6307 48.0752 65.3276C48.2267 65.0246 48.3724 64.7565 48.5123 64.5234C48.6638 64.2787 48.7978 64.0864 48.9144 63.9465L52.1137 59.5584C52.1603 59.5001 52.2302 59.4302 52.3235 59.3486C52.4167 59.2554 52.5449 59.2088 52.7081 59.2088H54.334C54.4388 59.2088 54.5263 59.2496 54.5962 59.3311C54.6661 59.4011 54.7011 59.4885 54.7011 59.5934C54.7011 59.64 54.6894 59.6866 54.6661 59.7332C54.6545 59.7682 54.637 59.7973 54.6137 59.8206L52.1661 63.2123C52.271 63.1773 52.3934 63.154 52.5333 63.1423C52.6731 63.1307 52.8013 63.1248 52.9179 63.1248C53.5006 63.1365 54.0542 63.2531 54.5787 63.4745C55.1032 63.6843 55.5636 63.9757 55.9598 64.3486C56.3561 64.7216 56.665 65.1586 56.8864 65.6598C57.1195 66.161 57.236 66.7088 57.236 67.3032C57.236 68.0724 57.0437 68.7892 56.6591 69.4535C56.2745 70.1062 55.7209 70.6307 54.9983 71.0269C54.2873 71.4232 53.4307 71.6213 52.4284 71.6213ZM52.4109 69.6109C52.8305 69.6109 53.2151 69.5234 53.5647 69.3486C53.926 69.1738 54.2174 68.9174 54.4388 68.5794C54.6603 68.2414 54.771 67.8218 54.771 67.3206C54.771 66.8311 54.6603 66.4174 54.4388 66.0794C54.2174 65.7414 53.926 65.485 53.5647 65.3102C53.2151 65.1353 52.8305 65.0479 52.4109 65.0479C51.9913 65.0479 51.6008 65.1353 51.2395 65.3102C50.8899 65.485 50.6043 65.7414 50.3829 66.0794C50.1615 66.4174 50.0507 66.8311 50.0507 67.3206C50.0507 67.8218 50.1615 68.2414 50.3829 68.5794C50.6043 68.9174 50.8899 69.1738 51.2395 69.3486C51.6008 69.5234 51.9913 69.6109 52.4109 69.6109Z" fill="#F5F5F5"/>
<path d="M63.7212 71.6213C62.8937 71.6213 62.1886 71.499 61.6059 71.2542C61.0231 71.0095 60.5453 70.6715 60.1723 70.2402C59.7993 69.809 59.5196 69.3137 59.3331 68.7542C59.1467 68.1831 59.0359 67.5771 59.001 66.936C58.9893 66.6213 58.9777 66.2775 58.966 65.9046C58.966 65.5199 58.966 65.1353 58.966 64.7507C58.9777 64.3661 58.9893 64.0106 59.001 63.6843C59.0243 63.0433 59.135 62.443 59.3331 61.8836C59.5313 61.3125 59.8168 60.8172 60.1898 60.3976C60.5744 59.978 61.0581 59.6458 61.6408 59.4011C62.2236 59.1563 62.917 59.0339 63.7212 59.0339C64.5371 59.0339 65.2364 59.1563 65.8191 59.4011C66.4019 59.6458 66.8798 59.978 67.2527 60.3976C67.6373 60.8172 67.9229 61.3125 68.1094 61.8836C68.3075 62.443 68.4182 63.0433 68.4415 63.6843C68.4648 64.0106 68.4765 64.3661 68.4765 64.7507C68.4765 65.1353 68.4765 65.5199 68.4765 65.9046C68.4765 66.2775 68.4648 66.6213 68.4415 66.936C68.4182 67.5771 68.3133 68.1831 68.1268 68.7542C67.9404 69.3137 67.6606 69.809 67.2877 70.2402C66.9147 70.6715 66.431 71.0095 65.8366 71.2542C65.2539 71.499 64.5487 71.6213 63.7212 71.6213ZM63.7212 69.6109C64.4788 69.6109 65.0324 69.3661 65.3821 68.8766C65.7434 68.3754 65.9299 67.6994 65.9415 66.8486C65.9648 66.5106 65.9765 66.1726 65.9765 65.8346C65.9765 65.485 65.9765 65.1353 65.9765 64.7857C65.9765 64.436 65.9648 64.1039 65.9415 63.7892C65.9299 62.9617 65.7434 62.2973 65.3821 61.7962C65.0324 61.2834 64.4788 61.0269 63.7212 61.0269C62.9753 61.0269 62.4217 61.2834 62.0604 61.7962C61.7108 62.2973 61.5243 62.9617 61.501 63.7892C61.501 64.1039 61.4951 64.436 61.4835 64.7857C61.4835 65.1353 61.4835 65.485 61.4835 65.8346C61.4951 66.1726 61.501 66.5106 61.501 66.8486C61.5243 67.6994 61.7166 68.3754 62.0779 68.8766C62.4392 69.3661 62.987 69.6109 63.7212 69.6109Z" fill="#F5F5F5"/>
<path d="M73.1483 64.471C72.6355 64.471 72.1634 64.3544 71.7322 64.1213C71.3126 63.8766 70.9746 63.5503 70.7182 63.1423C70.4618 62.7227 70.3336 62.2565 70.3336 61.7437C70.3336 61.2309 70.4618 60.7705 70.7182 60.3626C70.9746 59.9547 71.3126 59.6342 71.7322 59.4011C72.1634 59.1563 72.6355 59.0339 73.1483 59.0339C73.6611 59.0339 74.1273 59.1563 74.5469 59.4011C74.9665 59.6342 75.3045 59.9547 75.5609 60.3626C75.8173 60.7705 75.9455 61.2309 75.9455 61.7437C75.9455 62.2565 75.8173 62.7227 75.5609 63.1423C75.3045 63.5503 74.9665 63.8766 74.5469 64.1213C74.1273 64.3544 73.6611 64.471 73.1483 64.471ZM73.1483 63.0724C73.5446 63.0724 73.8651 62.95 74.1098 62.7053C74.3546 62.4605 74.477 62.14 74.477 61.7437C74.477 61.3475 74.3546 61.0269 74.1098 60.7822C73.8651 60.5374 73.5446 60.4151 73.1483 60.4151C72.752 60.4151 72.4315 60.5374 72.1867 60.7822C71.942 61.0269 71.8196 61.3475 71.8196 61.7437C71.8196 62.14 71.942 62.4605 72.1867 62.7053C72.4315 62.95 72.752 63.0724 73.1483 63.0724Z" fill="#F5F5F5"/>
</g>
</svg>
