<svg width="49" height="35" viewBox="0 0 49 35" fill="none" xmlns="http://www.w3.org/2000/svg">
<path d="M14.8305 20.035C17.7591 20.035 21.1757 17.0655 21.1757 13.2016C21.1757 9.33782 18.0435 6.20557 14.1797 6.20557C10.3158 6.20557 7.18359 9.33782 7.18359 13.2016C7.18359 14.0193 7.32387 14.8043 7.58168 15.5337" stroke="#EA4C14" stroke-width="1.5"/>
<path d="M24.4297 2.52172V33.7093M24.4297 2.52172C24.4297 2.52172 23.5169 1 20.7785 1C13.9324 1 1.00098 1 1.00098 1L1.00127 32.4922C1.00127 32.4922 12.8678 32.4922 20.7785 32.4922C23.3651 32.4922 24.4297 33.7093 24.4297 33.7093M24.4297 2.52172C24.4297 2.52172 25.3425 1 28.2331 1C35.6877 1 47.8584 1 47.8584 1V32.4922C47.8584 32.4922 30.3126 32.4922 28.2331 32.4922C25.3428 32.4922 24.4297 33.7093 24.4297 33.7093" stroke="#F5F5F5" stroke-width="1.5" stroke-linecap="round" stroke-linejoin="round"/>
<path d="M13.8442 18.6482V18.6482C14.4787 18.6482 14.9931 19.1626 14.9931 19.7972V25.9954H13.8442M13.8442 18.6482V18.6482C13.1189 18.6482 12.531 19.2361 12.531 19.9614V21.0695M13.8442 18.6482V18.6482C13.8442 16.9914 12.501 15.6426 10.8442 15.6426H1.00098M12.531 21.0695V23.4907H5.55512M12.531 21.0695H5.55512M5.55512 21.0695V23.4907M5.55512 21.0695H1.00098M5.55512 23.4907H1.00098M13.8442 25.9954V28.3331H12.8593L11.2179 25.9954M13.8442 25.9954H11.2179M11.2179 25.9954H1.00098" stroke="#F5F5F5" stroke-width="1.5" stroke-linejoin="round"/>
<path d="M14.0166 27.3574L24.4294 27.3574" stroke="#F5F5F5" stroke-width="1.5" stroke-linejoin="round"/>
<path d="M1.00098 27.3574L12.3899 27.3574" stroke="#F5F5F5" stroke-width="1.5" stroke-linejoin="round"/>
<path d="M38.9104 6.53669L37.7715 4.9043H40.0493L38.9104 6.53669ZM38.9104 6.53669V12.2501M38.9104 12.2501V12.2501C38.3629 12.2402 37.9138 12.6813 37.9138 13.2289V24.0849H38.768L39.9069 24.1028V13.2466C39.9069 12.6962 39.4608 12.2501 38.9104 12.2501V12.2501Z" stroke="#EA4C14" stroke-width="1.5" stroke-linejoin="round"/>
<path d="M43.1399 6.54842L42.001 4.9043H44.2788L43.1399 6.54842ZM43.1399 6.54842V16.3951M43.1399 16.3951V16.3951C42.5924 16.3852 42.1433 16.8263 42.1433 17.3738V28.315H42.9975L44.1364 28.333V17.3916C44.1364 16.8413 43.6902 16.3951 43.1399 16.3951V16.3951Z" stroke="#EA4C14" stroke-width="1.5" stroke-linejoin="round"/>
<path d="M28.335 27.3574H34.6802" stroke="#F5F5F5" stroke-width="1.5" stroke-linecap="round" stroke-linejoin="round"/>
<path d="M28.335 25.4038H34.6802" stroke="#F5F5F5" stroke-width="1.5" stroke-linecap="round" stroke-linejoin="round"/>
<path d="M28.335 21.5H34.6802" stroke="#F5F5F5" stroke-width="1.5" stroke-linecap="round" stroke-linejoin="round"/>
<path d="M28.335 23.4512H34.6802" stroke="#F5F5F5" stroke-width="1.5" stroke-linecap="round" stroke-linejoin="round"/>
<path d="M28.335 19.5464H34.6802" stroke="#F5F5F5" stroke-width="1.5" stroke-linecap="round" stroke-linejoin="round"/>
</svg>
