<svg width="50" height="38" viewBox="0 0 50 38" fill="none" xmlns="http://www.w3.org/2000/svg">
<path d="M8.45991 28.7326C9.04229 28.7326 7.53621 28.4016 6.32664 29.5729C5.11707 30.7442 5.70964 32.3193 6.21362 32.8074C5.70962 32.6679 4.28897 32.221 3.40564 33.2145C2.59399 34.1273 3.28754 35.6064 3.71953 36.1641" stroke="#F5F5F5" stroke-width="1.5" stroke-linecap="round" stroke-linejoin="round"/>
<path d="M9.04199 36.2954V6.88257L19.5219 1M19.5219 1L30.0017 5.76208V11.3645M19.5219 1V36.2954M25.9262 36.2954V13.6055L34.0772 9.12354M34.0772 9.12354L42.2282 12.7651V29.8526M34.0772 9.12354V30.9731" stroke="#EA4C14" stroke-width="1.5" stroke-linecap="round" stroke-linejoin="round"/>
<path d="M9.04199 30.1327L19.5219 29.0122L25.9262 29.5725M25.9262 31.5333L34.0772 30.9731" stroke="#EA4C14" stroke-width="1.5" stroke-linecap="round" stroke-linejoin="round"/>
<path d="M32.4354 36.3783C31.8532 35.9115 30.9217 34.2231 31.8532 32.6544C32.7847 31.0857 34.5702 31.2538 35.3465 31.5339C34.8613 30.1333 34.706 27.332 37.9664 27.332C41.2268 27.332 41.6538 30.1333 41.4597 31.5339C41.5567 30.7869 42.6241 29.8531 44.0797 30.4134C45.2884 30.8786 45.05 32.3742 44.953 32.9345C45.3411 32.7477 47.2236 32.3742 47.573 34.055C47.8058 35.1755 47.0878 36.0049 46.9907 36.3783H32.4354Z" stroke="#F5F5F5" stroke-width="1.5" stroke-linecap="round" stroke-linejoin="round"/>
<path d="M1.00098 36.5259H49.2149" stroke="white" stroke-width="1.5" stroke-linecap="round"/>
</svg>
