<svg width="40" height="37" viewBox="0 0 40 37" fill="none" xmlns="http://www.w3.org/2000/svg">
<path d="M6.0278 1V5.21963M6.0278 26.3178V5.21963M1.00098 5.68848V31.2407M6.0278 5.21963H38.9535V36.1636H6.0278" stroke="#F5F5F5" stroke-width="1.5" stroke-linecap="round" stroke-linejoin="round"/>
<path d="M6.27914 36.1637C3.36409 36.1637 1.00098 33.9596 1.00098 31.2408C1.00098 28.5219 3.36409 26.3179 6.27914 26.3179" stroke="#F5F5F5" stroke-width="1.5" stroke-linejoin="round"/>
<path d="M1.00098 5.9229C1.00098 3.20406 3.36409 1 6.27914 1" stroke="#F5F5F5" stroke-width="1.5" stroke-linejoin="round"/>
<path d="M19.0976 9.9082H11.0547V20.6917M19.0976 9.9082V16.0032H22.8677M19.0976 9.9082H27.3919M27.3919 9.9082H33.6754V21.8638M27.3919 9.9082V17.6442M11.0547 20.6917V31.4752H19.0976M11.0547 20.6917H19.0976V23.7392M19.0976 27.7244V31.4752M19.0976 31.4752H27.3919M33.6754 21.8638V31.4752H27.3919M33.6754 21.8638H27.3919V25.6146M27.3919 29.3654V31.4752" stroke="#EA4C14" stroke-width="1.5" stroke-linecap="round" stroke-linejoin="round"/>
</svg>
