<svg width="51" height="39" viewBox="0 0 51 39" fill="none" xmlns="http://www.w3.org/2000/svg">
<path d="M8.78613 10.8189C8.78613 7.36707 11.5844 4.56885 15.0361 4.56885H36.9781C40.4299 4.56885 43.2281 7.36707 43.2281 10.8188V14.4375C43.2281 17.8893 40.4299 20.6875 36.9781 20.6875H33.1026C31.9775 20.6875 30.9181 20.1578 30.243 19.2577C28.2132 16.5512 24.1535 16.5512 22.1237 19.2577C21.4486 20.1578 20.3891 20.6875 19.264 20.6875H15.0361C11.5844 20.6875 8.78613 17.8893 8.78613 14.4375V10.8189Z" stroke="#F5F5F5" stroke-width="1.5"/>
<path d="M9.44531 4.5064V4.5064C9.44531 2.56987 11.0152 1 12.9517 1H39.0619C40.9985 1 42.5683 2.56987 42.5683 4.5064V4.5064" stroke="#F5F5F5" stroke-width="1.5"/>
<circle cx="17.7253" cy="12.4524" r="2.94991" stroke="#F5F5F5" stroke-width="1.5"/>
<circle cx="34.2888" cy="12.4524" r="2.94991" stroke="#F5F5F5" stroke-width="1.5"/>
<path d="M1.00098 21.9396L4.34634 21.437L5.02149 24.4488M14.5702 31.5994C6.4964 30.318 2.67636 27.7219 2.67636 24.4488C2.67636 23.3846 3.26912 22.3683 4.34669 21.4371M38.5258 31.5994C45.8936 30.232 49.5824 27.5427 49.5824 24.4488C49.5824 23.3846 48.9897 22.3683 47.9121 21.4371" stroke="#EA4C14" stroke-width="1.5" stroke-linecap="round" stroke-linejoin="round"/>
<path d="M19.663 38.2998C19.267 38.2998 18.9247 38.2517 18.6362 38.1555C18.3477 38.0593 18.1073 37.9349 17.9149 37.7821C17.7282 37.6237 17.5868 37.454 17.4906 37.273C17.3945 37.0863 17.3435 36.9024 17.3379 36.7214C17.3379 36.6705 17.3549 36.6309 17.3888 36.6026C17.4284 36.5686 17.4737 36.5517 17.5246 36.5517H18.2883C18.3449 36.5517 18.393 36.563 18.4326 36.5856C18.4722 36.6082 18.5061 36.6535 18.5344 36.7214C18.5853 36.8741 18.6673 36.9958 18.7805 37.0863C18.8993 37.1768 19.0351 37.2419 19.1878 37.2815C19.3406 37.3154 19.5018 37.3324 19.6715 37.3324C20.0109 37.3324 20.2797 37.2532 20.4777 37.0948C20.6813 36.9307 20.7831 36.6988 20.7831 36.3989C20.7831 36.0991 20.6898 35.8841 20.5031 35.754C20.3164 35.6182 20.0562 35.5503 19.7224 35.5503H18.8484C18.7861 35.5503 18.7352 35.5334 18.6956 35.4994C18.656 35.4598 18.6362 35.4089 18.6362 35.3467V34.9903C18.6362 34.9337 18.6475 34.8856 18.6702 34.846C18.6985 34.8008 18.7267 34.764 18.755 34.7357L20.274 33.2507H17.847C17.7848 33.2507 17.7339 33.2309 17.6943 33.1913C17.6604 33.1517 17.6434 33.1036 17.6434 33.047V32.4869C17.6434 32.4247 17.6604 32.3738 17.6943 32.3342C17.7339 32.2946 17.7848 32.2748 17.847 32.2748H21.4875C21.5497 32.2748 21.6006 32.2946 21.6402 32.3342C21.6798 32.3738 21.6996 32.4247 21.6996 32.4869V32.9961C21.6996 33.047 21.6883 33.0923 21.6657 33.1319C21.643 33.1715 21.6176 33.2054 21.5893 33.2337L20.1213 34.7442L20.2231 34.7527C20.5682 34.781 20.8737 34.8602 21.1396 34.9903C21.4111 35.1147 21.6204 35.2986 21.7675 35.5419C21.9203 35.7851 21.9966 36.0906 21.9966 36.4583C21.9966 36.843 21.8948 37.174 21.6911 37.4512C21.4931 37.7227 21.2188 37.932 20.868 38.0791C20.5173 38.2262 20.1156 38.2998 19.663 38.2998Z" fill="#EA4C14"/>
<path d="M25.1609 38.2998C24.6743 38.2998 24.2557 38.2092 23.9049 38.0282C23.5542 37.8415 23.2827 37.5926 23.0903 37.2815C22.898 36.9647 22.8018 36.6111 22.8018 36.2207C22.8018 36.0453 22.8244 35.8756 22.8697 35.7116C22.9149 35.5475 22.9743 35.3919 23.0479 35.2449C23.1214 35.0978 23.1921 34.9676 23.26 34.8545C23.3336 34.7357 23.3986 34.6424 23.4552 34.5745L25.0081 32.4445C25.0307 32.4162 25.0647 32.3823 25.1099 32.3427C25.1552 32.2974 25.2174 32.2748 25.2966 32.2748H26.0858C26.1367 32.2748 26.1792 32.2946 26.2131 32.3342C26.247 32.3681 26.264 32.4106 26.264 32.4615C26.264 32.4841 26.2584 32.5067 26.247 32.5294C26.2414 32.5463 26.2329 32.5605 26.2216 32.5718L25.0336 34.2181C25.0845 34.2011 25.1439 34.1898 25.2118 34.1841C25.2797 34.1785 25.3419 34.1756 25.3985 34.1756C25.6813 34.1813 25.95 34.2379 26.2046 34.3453C26.4592 34.4472 26.6827 34.5886 26.875 34.7696C27.0673 34.9507 27.2173 35.1628 27.3247 35.4061C27.4379 35.6493 27.4945 35.9152 27.4945 36.2038C27.4945 36.5771 27.4011 36.9251 27.2144 37.2475C27.0277 37.5643 26.759 37.8189 26.4083 38.0112C26.0632 38.2036 25.6474 38.2998 25.1609 38.2998ZM25.1524 37.3239C25.356 37.3239 25.5427 37.2815 25.7124 37.1966C25.8878 37.1117 26.0292 36.9873 26.1367 36.8232C26.2442 36.6592 26.298 36.4555 26.298 36.2122C26.298 35.9746 26.2442 35.7738 26.1367 35.6097C26.0292 35.4457 25.8878 35.3212 25.7124 35.2364C25.5427 35.1515 25.356 35.1091 25.1524 35.1091C24.9487 35.1091 24.7592 35.1515 24.5838 35.2364C24.4141 35.3212 24.2755 35.4457 24.168 35.6097C24.0605 35.7738 24.0068 35.9746 24.0068 36.2122C24.0068 36.4555 24.0605 36.6592 24.168 36.8232C24.2755 36.9873 24.4141 37.1117 24.5838 37.1966C24.7592 37.2815 24.9487 37.3239 25.1524 37.3239Z" fill="#EA4C14"/>
<path d="M30.6423 38.2998C30.2407 38.2998 29.8984 38.2404 29.6155 38.1216C29.3327 38.0028 29.1007 37.8387 28.9197 37.6294C28.7387 37.4201 28.6029 37.1796 28.5124 36.9081C28.4219 36.6309 28.3681 36.3367 28.3511 36.0255C28.3455 35.8728 28.3398 35.7059 28.3342 35.5249C28.3342 35.3382 28.3342 35.1515 28.3342 34.9648C28.3398 34.7781 28.3455 34.6056 28.3511 34.4472C28.3625 34.136 28.4162 33.8447 28.5124 33.5731C28.6085 33.2959 28.7471 33.0555 28.9282 32.8518C29.1149 32.6482 29.3496 32.4869 29.6325 32.3681C29.9154 32.2493 30.252 32.1899 30.6423 32.1899C31.0383 32.1899 31.3778 32.2493 31.6606 32.3681C31.9435 32.4869 32.1754 32.6482 32.3565 32.8518C32.5432 33.0555 32.6818 33.2959 32.7723 33.5731C32.8684 33.8447 32.9222 34.136 32.9335 34.4472C32.9448 34.6056 32.9505 34.7781 32.9505 34.9648C32.9505 35.1515 32.9505 35.3382 32.9505 35.5249C32.9505 35.7059 32.9448 35.8728 32.9335 36.0255C32.9222 36.3367 32.8713 36.6309 32.7808 36.9081C32.6902 37.1796 32.5545 37.4201 32.3734 37.6294C32.1924 37.8387 31.9576 38.0028 31.6691 38.1216C31.3862 38.2404 31.044 38.2998 30.6423 38.2998ZM30.6423 37.3239C31.01 37.3239 31.2788 37.2051 31.4485 36.9675C31.6239 36.7242 31.7144 36.3961 31.72 35.9831C31.7313 35.8191 31.737 35.655 31.737 35.4909C31.737 35.3212 31.737 35.1515 31.737 34.9818C31.737 34.8121 31.7313 34.6508 31.72 34.4981C31.7144 34.0964 31.6239 33.774 31.4485 33.5307C31.2788 33.2818 31.01 33.1573 30.6423 33.1573C30.2803 33.1573 30.0115 33.2818 29.8362 33.5307C29.6664 33.774 29.5759 34.0964 29.5646 34.4981C29.5646 34.6508 29.5618 34.8121 29.5561 34.9818C29.5561 35.1515 29.5561 35.3212 29.5561 35.4909C29.5618 35.655 29.5646 35.8191 29.5646 35.9831C29.5759 36.3961 29.6693 36.7242 29.8447 36.9675C30.02 37.2051 30.2859 37.3239 30.6423 37.3239Z" fill="#EA4C14"/>
<path d="M35.2181 34.829C34.9692 34.829 34.7401 34.7725 34.5308 34.6593C34.3271 34.5405 34.163 34.3821 34.0386 34.1841C33.9141 33.9805 33.8519 33.7542 33.8519 33.5052C33.8519 33.2563 33.9141 33.0329 34.0386 32.8349C34.163 32.6369 34.3271 32.4813 34.5308 32.3681C34.7401 32.2493 34.9692 32.1899 35.2181 32.1899C35.467 32.1899 35.6933 32.2465 35.897 32.3597C36.1006 32.4728 36.2647 32.6312 36.3892 32.8349C36.5136 33.0329 36.5759 33.2563 36.5759 33.5052C36.5759 33.7542 36.5136 33.9805 36.3892 34.1841C36.2647 34.3821 36.1006 34.5405 35.897 34.6593C35.6933 34.7725 35.467 34.829 35.2181 34.829ZM35.2181 34.1502C35.4105 34.1502 35.566 34.0908 35.6848 33.972C35.8036 33.8532 35.863 33.6976 35.863 33.5052C35.863 33.3129 35.8036 33.1573 35.6848 33.0385C35.566 32.9197 35.4105 32.8603 35.2181 32.8603C35.0258 32.8603 34.8702 32.9197 34.7514 33.0385C34.6326 33.1573 34.5732 33.3129 34.5732 33.5052C34.5732 33.6976 34.6326 33.8532 34.7514 33.972C34.8702 34.0908 35.0258 34.1502 35.2181 34.1502Z" fill="#EA4C14"/>
</svg>
