<svg width="52" height="36" viewBox="0 0 52 36" fill="none" xmlns="http://www.w3.org/2000/svg">
<path d="M25.4562 20.7725C24.852 21.4975 23.0274 22.7301 20.5623 21.86C17.481 20.7725 13.3121 15.5161 10.7745 15.6974C8.23695 15.8786 6.60565 18.7787 4.97435 16.4224C3.34305 14.0661 4.24933 8.80965 4.61184 6.81583C4.82453 5.64608 5.22439 3.91482 5.11596 2.64696M25.4562 20.7725C26.9065 16.0599 25.4562 14.0661 23.2809 13.5223C21.1056 12.9785 18.2057 16.0599 16.0307 14.4286C13.8556 12.7973 15.4869 9.53468 17.1182 7.72212C18.7495 5.90956 19.2933 3.55323 17.662 1.74068C16.0307 -0.0718764 12.9494 1.92193 10.4118 2.64696C8.38176 3.22697 6.03539 2.88863 5.11596 2.64696M25.4562 20.7725C23.7847 23.1684 21.4965 27.1571 15.6065 27.479M14.0371 27.479C7.96559 27.1676 2.43658 21.135 1.34904 12.7973C0.26151 4.45951 1.89305 0.834402 3.88687 1.01566C4.71092 1.09057 5.03957 1.75378 5.11596 2.64696M14.0371 27.479V31.1041L7.69292 33.2792C7.75334 33.7625 9.25172 34.7292 14.7619 34.7292C20.2721 34.7292 21.7704 33.7625 21.8309 33.2792L15.6065 31.1041V27.479M14.0371 27.479C14.4121 27.4982 14.7743 27.5038 15.1244 27.4969C15.2877 27.4936 15.4484 27.4876 15.6065 27.479" stroke="#EA4C14" stroke-width="1.5" stroke-linecap="round" stroke-linejoin="round"/>
<ellipse cx="38.3254" cy="11.8906" rx="12.3254" ry="3.44386" stroke="#F5F5F5" stroke-width="1.5"/>
<path d="M36.8753 26.2357C34.595 26.3424 32.8877 26.7776 32.8877 27.2982C32.8877 27.8988 35.1599 28.3857 37.9629 28.3857C40.7658 28.3857 43.038 27.8988 43.038 27.2982C43.038 26.7639 41.2396 26.3195 38.8691 26.228" stroke="#F5F5F5" stroke-width="1.5"/>
<path d="M37.0566 15.5166V26.7544H38.8692V15.5166" stroke="#F5F5F5" stroke-width="1.5" stroke-linecap="round" stroke-linejoin="round"/>
</svg>
