<svg width="50" height="36" viewBox="0 0 50 36" fill="none" xmlns="http://www.w3.org/2000/svg">
<path d="M7.98221 26.7868C8.56459 26.7868 7.05851 26.4558 5.84894 27.6271C4.63937 28.7984 5.23194 30.3735 5.73593 30.8616C5.23192 30.7221 3.81127 30.2752 2.92794 31.2687C2.11629 32.1816 2.49595 33.232 2.92794 33.7898" stroke="#F5F5F5" stroke-width="1.5" stroke-linecap="round" stroke-linejoin="round"/>
<path d="M23.8398 1L34.7152 10.6065V29.4571M28.19 1L39.0653 10.6065V25.4695" stroke="#EA4C14" stroke-width="1.5" stroke-linecap="round" stroke-linejoin="round"/>
<path d="M11.5137 28.0068H26.7391M15.6825 28.0068V31.2694M22.5703 28.0068V31.2694M11.5137 16.9502H26.7391" stroke="#EA4C14" stroke-width="1.5" stroke-linecap="round" stroke-linejoin="round"/>
<path d="M8.25098 34.351V10.7878L19.1263 1M19.1263 1L30.1829 10.7878M19.1263 1H31.8142L43.7771 10.7878M30.1829 10.7878V34.351M30.1829 10.7878H43.7771M43.7771 10.7878V28.3696" stroke="#EA4C14" stroke-width="1.5" stroke-linecap="round" stroke-linejoin="round"/>
<path d="M26.7391 19.4035V12.6495L19.1264 5.71289L11.5137 12.6495V31.4512H19.1264H26.7391V19.4035Z" stroke="#EA4C14" stroke-width="1.5" stroke-linecap="round" stroke-linejoin="round"/>
<path d="M1.00098 34.3516H49.0337" stroke="#F5F5F5" stroke-width="1.5" stroke-linecap="round" stroke-linejoin="round"/>
<path d="M32.7919 34.071C32.2096 33.6041 31.2781 32.2782 32.2096 30.7095C33.1412 29.1409 34.9266 29.3089 35.7029 29.5891C35.2177 28.1884 35.0625 25.3872 38.3229 25.3872C41.5833 25.3872 42.0102 28.1884 41.8162 29.5891C41.9132 28.8421 42.9806 27.9083 44.4361 28.4686C45.6449 28.9338 45.4065 30.4294 45.3094 30.9897C45.6976 30.8029 47.5801 30.4294 47.9294 32.1101C48.1623 33.2306 47.4442 33.6975 47.3472 34.071H32.7919Z" stroke="#F5F5F5" stroke-width="1.5" stroke-linecap="round" stroke-linejoin="round"/>
</svg>
